# xmcd
#
# Track frame offsets: 
#        150
#        18091
#        42501
#        64067
#
# Disc length: 1123 seconds
#
# Revision: 0
# Processed by: cddbd v1.5.2PL0 Copyright (c) Steve Scherf et al.
# Submitted via: ExactAudioCopy v1.0b1
#
DISCID=2b046104
DTITLE=BOTM - Betting On The Mouse
DYEAR=2010
DGENRE=Rock
TTITLE0=Desert of Wasted Plans
TTITLE1=Reach Me
TTITLE2=Sleeping
TTITLE3=Your Private Swimmingpool
EXTD=
EXTT0=
EXTT1=
EXTT2=
EXTT3=
PLAYORDER=
